<svg version="1.2" xmlns="http://www.w3.org/2000/svg" viewBox="0 0 1282 547" width="1282" height="547"><defs><clipPath clipPathUnits="userSpaceOnUse" id="cp1"><path d="m1281.62 546.17h-1281.25v-854.17h1281.25z"/></clipPath><linearGradient id="P" gradientUnits="userSpaceOnUse"/><linearGradient id="g1" x2="1" href="#P" gradientTransform="matrix(1429.687,0,0,186.03,-87.149,353.959)"><stop stop-color="#fff" stop-opacity="1"/><stop offset="1" stop-color="#fff" stop-opacity="0"/></linearGradient><linearGradient id="g2" x2="1" href="#P" gradientTransform="matrix(1362.797,0,0,306.446,-62.47,303.782)"><stop stop-color="#fff" stop-opacity="1"/><stop offset="1" stop-color="#fff" stop-opacity="0"/></linearGradient><linearGradient id="g3" x2="1" href="#P" gradientTransform="matrix(959.186,0,0,511.934,-65.347,107.64)"><stop stop-color="#fff" stop-opacity="1"/><stop offset="1" stop-color="#fff" stop-opacity="0"/></linearGradient><linearGradient id="g4" x2="1" href="#P" gradientTransform="matrix(680.26,0,0,595.833,-126.379,.18)"><stop stop-color="#fff" stop-opacity="1"/><stop offset="1" stop-color="#fff" stop-opacity="0"/></linearGradient></defs><style>.a{fill:url(#g1)}.b{fill:url(#g2)}.c{fill:url(#g3)}.d{fill:url(#g4)}</style><g clip-path="url(#cp1)"><path class="a" d="m1345.5 469c-45.3-70.6-126.7-106-208-113.6-100.7-9.3-198.1 26.5-288.8 66.1-101.9 44.5-203.8 97.9-316.2 109-54 5.3-107-1.5-158.5-18.5-51.1-16.9-99.2-41.3-147.9-63.8-96.4-44.4-213.4-84.5-315-32.2-4.9 2.5-0.6 9.9 4.3 7.4 92.5-47.7 201.3-15 290.3 24.8 92.1 41.3 182.5 92.4 286.3 92.8 107.3 0.4 208.2-43.5 304.1-86.7 93-41.9 190.1-87.8 293.9-91.6 93.3-3.5 195.6 28.6 248.1 110.6 3 4.6 10.4 0.4 7.4-4.3z"/><path class="b" d="m-62.4 316.4c103.3-12.7 190 60.8 258.1 128.8 65.4 65.2 132.5 138.1 226.1 159.7 97.2 22.3 198.6-10.7 283.1-58.2 91.8-51.6 171.6-121.7 263.6-172.9 98-54.6 223.5-88.2 329.3-34.9 4.9 2.5 9.2-4.9 4.3-7.4-89-44.8-193.7-30.1-282.5 7.5-97.1 41.3-178.4 110.7-266.1 167.9-86.5 56.6-187.9 104.9-294.1 95.4-102.1-9.2-175.3-80.5-244-149.5-73.4-73.7-165-158.8-277.8-145-5.3 0.7-5.4 9.2 0 8.6z"/><path class="c" d="m893.8 615.3c-155-4.2-298.9-75-417.3-171.5-57.6-46.9-108.4-100.3-159.2-154.3-49.6-52.5-101.6-105.4-165.4-140.6-65.9-36.2-145-54.5-218.1-30.3-5.2 1.8-3 10 2.3 8.3 68.8-22.8 142.9-6.8 205.6 26.3 64.8 34.2 117.3 87 167.1 139.8 50.9 53.9 101.5 107.5 158.9 154.6 56.3 46.3 117.6 86.9 183.9 117.4 76.1 35 158.3 56.6 242.2 58.8 5.5 0.1 5.5-8.4 0-8.5z"/><path class="d" d="m556.4 595.4c-116.8-91.7-161.1-239-228.8-365-58.6-109.2-152.6-223.6-286.5-230-63.6-3-129.8 19.7-169.8 70.9-3.4 4.3 2.6 10.3 6 6 36.3-46.4 94.5-68.6 152.4-68.6 62.4 0 120.7 26.8 168 66.4 108.6 90.7 152.2 229.9 216.4 351.1 34.8 65.7 77.2 128.9 136.2 175.2 4.3 3.4 10.4-2.6 6.1-6z"/></g></svg>