<svg version="1.2" xmlns="http://www.w3.org/2000/svg" viewBox="0 0 112 53" width="112" height="53"><defs><linearGradient id="P" gradientUnits="userSpaceOnUse"/><linearGradient id="g1" x2="1" href="#P" gradientTransform="matrix(48.901,0,0,48.901,43.258,2.258)"><stop offset=".01" stop-color="#e9bd32"/><stop offset="1" stop-color="#db782b"/></linearGradient><linearGradient id="g2" x2="1" href="#P" gradientTransform="matrix(36.302,0,0,36.302,74.008,8.557)"><stop offset=".01" stop-color="#e9bd32"/><stop offset="1" stop-color="#db782b"/></linearGradient><linearGradient id="g3" x2="1" href="#P" gradientTransform="matrix(28.188,0,0,28.187,29.164,12.615)"><stop offset=".01" stop-color="#e9bd32"/><stop offset="1" stop-color="#db782b"/></linearGradient><linearGradient id="g4" x2="1" href="#P" gradientTransform="matrix(19.674,0,0,19.673,2.473,16.872)"><stop offset=".01" stop-color="#e9bd32"/><stop offset="1" stop-color="#db782b"/></linearGradient></defs><style>.a{fill:none;stroke:url(#g1);stroke-miterlimit:10;stroke-width:3.4}.b{fill:none;stroke:url(#g2);stroke-miterlimit:10;stroke-width:3.4}.c{fill:none;stroke:url(#g3);stroke-miterlimit:10;stroke-width:3.4}.d{fill:none;stroke:url(#g4);stroke-miterlimit:10;stroke-width:3.4}</style><path class="a" d="m92.2 26.7c0 13.5-11 24.5-24.5 24.5-13.5 0-24.4-11-24.4-24.5 0-13.5 10.9-24.4 24.4-24.4 13.5 0 24.5 10.9 24.5 24.4z"/><path class="b" d="m110.3 26.7c0 10-8.1 18.2-18.1 18.2-10.1 0-18.2-8.2-18.2-18.2 0-10 8.1-18.1 18.2-18.1 10 0 18.1 8.1 18.1 18.1z"/><path class="c" d="m57.4 26.7c0 7.8-6.4 14.1-14.1 14.1-7.8 0-14.1-6.3-14.1-14.1 0-7.8 6.3-14.1 14.1-14.1 7.7 0 14.1 6.3 14.1 14.1z"/><path class="d" d="m22.1 26.7c0 5.4-4.4 9.8-9.8 9.8-5.4 0-9.8-4.4-9.8-9.8 0-5.4 4.4-9.8 9.8-9.8 5.4 0 9.8 4.4 9.8 9.8z"/></svg>