<svg version="1.2" xmlns="http://www.w3.org/2000/svg" viewBox="0 0 1282 855" width="1282" height="855"><defs><clipPath clipPathUnits="userSpaceOnUse" id="cp1"><path d="m1281.62 854.17h-1281.25v-854.17h1281.25z"/></clipPath><linearGradient id="P" gradientUnits="userSpaceOnUse"/><linearGradient id="g1" x2="1" href="#P" gradientTransform="matrix(901.688,562.958,-646.36,1035.273,811.272,-74.395)"><stop offset=".01" stop-color="#e9bd32"/><stop offset="1" stop-color="#db782b"/></linearGradient><linearGradient id="g2" x2="1" href="#P" gradientTransform="matrix(436.864,-994.921,1019.696,447.743,47.151,631.061)"><stop offset=".01" stop-color="#e9bd32"/><stop offset="1" stop-color="#db782b"/></linearGradient><linearGradient id="g3" x2="1" href="#P" gradientTransform="matrix(0,-673.01,677.564,0,665.5,1122.728)"><stop offset=".01" stop-color="#e9bd32"/><stop offset="1" stop-color="#db782b"/></linearGradient><linearGradient id="g4" x2="1" href="#P" gradientTransform="matrix(0,-673.009,251.343,0,10.906,1122.727)"><stop offset=".01" stop-color="#e9bd32"/><stop offset="1" stop-color="#db782b"/></linearGradient><linearGradient id="g5" x2="1" href="#P" gradientTransform="matrix(973.585,607.846,-607.846,973.585,828.107,314.62)"><stop offset=".01" stop-color="#e9bd32"/><stop offset="1" stop-color="#db782b"/></linearGradient><linearGradient id="g6" x2="1" href="#P" gradientTransform="matrix(973.586,607.847,-607.847,973.586,754.618,496.43)"><stop offset=".01" stop-color="#e9bd32"/><stop offset="1" stop-color="#db782b"/></linearGradient></defs><style>.a{fill:url(#g1)}.b{fill:url(#g2)}.c{fill:url(#g3)}.d{fill:url(#g4)}.e{fill:url(#g5)}.f{fill:url(#g6)}</style><g clip-path="url(#cp1)"><path class="a" d="m957.7 329.1c-19.6 398.2-334-28.9-511.4 354.1-87.7 189.4-468.8 201.2-573.6-13.9v172.5l3.4 43.4h1441.5v-913.8c-64.1-2.7-342.5 5.5-359.9 357.7z"/><path class="b" d="m1298 27c-90.7 1.9-321 38.5-336.8 357.9-19.6 398.2-334-28.9-511.4 354.1-93.5 201.9-520.5 201.9-590.6-59.7l17.3 222.8h1421.5z"/><path class="c" d="m1298 269.7c-67.3 50.4-124.3 138.6-131.9 291.9-19.4 393.3-326.5-18.7-504.9 340.5h636.8z"/><path class="d" d="m81.3 902.1c-7-14.3-12.8-29.7-17.2-46.1l3.6 46.1z"/><path class="e" d="m789.7 349.2c0 32.4-26.2 58.6-58.6 58.6-32.3 0-58.6-26.2-58.6-58.6 0-32.3 26.3-58.6 58.6-58.6 32.4 0 58.6 26.3 58.6 58.6z"/><path class="f" d="m602.3 426.9c0 14.2-11.5 25.6-25.7 25.6-14.1 0-25.6-11.4-25.6-25.6 0-14.1 11.5-25.6 25.6-25.6 14.2 0 25.7 11.5 25.7 25.6z"/></g></svg>